<?xml version="1.0" encoding="UTF-8"?>
<!DOCTYPE svg PUBLIC "-//W3C//DTD SVG 1.1//EN" "http://www.w3.org/Graphics/SVG/1.1/DTD/svg11.dtd">
<!-- Creator: CorelDRAW X7 -->
<svg xmlns="http://www.w3.org/2000/svg" xml:space="preserve" width="9.4538mm" height="9.1682mm" version="1.1" style="shape-rendering:geometricPrecision; text-rendering:geometricPrecision; image-rendering:optimizeQuality; fill-rule:evenodd; clip-rule:evenodd"
viewBox="0 0 877 851"
 xmlns:xlink="http://www.w3.org/1999/xlink">
 <defs>
  <style type="text/css">
   <![CDATA[
    .fil0 {fill:#FEFEFE}
   ]]>
  </style>
 </defs>
 <g id="Camada_x0020_1">
  <metadata id="CorelCorpID_0Corel-Layer"/>
  <path class="fil0" d="M76 67l128 0 -1 -66 97 -1 0 67 87 0 0 -62 96 -1 0 63 75 0 -1 -63 97 0 0 63 141 0 0 136 82 0 0 96 -82 0 0 75 82 0 0 96 -82 0 0 87 81 0 0 96 -81 0 0 124 -141 0 0 72 -96 1 0 -73 -75 0 1 73 -97 1 0 -74 -87 0 1 73 -97 1 0 -74 -128 0 0 -124 -76 0 0 -96 76 0 0 -87 -76 0 0 -96 76 0 0 -75 -74 0 0 -96 74 0 0 -136zm233 338l14 -1c1,-77 19,-137 116,-137 91,0 112,54 116,124 0,4 0,9 0,13l14 0 0 179 -260 1 0 -179zm42 -1l173 0c0,-4 0,-8 0,-11 -2,-56 -16,-98 -86,-98 -75,0 -87,49 -87,109zm-203 -265l574 0 0 566 -574 0 0 -566z"/>
 </g>
</svg>
