<?xml version="1.0" encoding="UTF-8"?>
<!DOCTYPE svg PUBLIC "-//W3C//DTD SVG 1.1//EN" "http://www.w3.org/Graphics/SVG/1.1/DTD/svg11.dtd">
<!-- Creator: CorelDRAW X7 -->
<svg xmlns="http://www.w3.org/2000/svg" xml:space="preserve" width="7.2449mm" height="9.1669mm" version="1.1" style="shape-rendering:geometricPrecision; text-rendering:geometricPrecision; image-rendering:optimizeQuality; fill-rule:evenodd; clip-rule:evenodd"
viewBox="0 0 128 162"
 xmlns:xlink="http://www.w3.org/1999/xlink">
 <defs>
  <style type="text/css">
   <![CDATA[
    .fil0 {fill:#FEFEFE}
   ]]>
  </style>
 </defs>
 <g id="Camada_x0020_1">
  <metadata id="CorelCorpID_0Corel-Layer"/>
  <path class="fil0" d="M32 102c-15,17 -15,12 0,29l-4 31 -28 0 0 -47c0,-5 -1,-18 3,-24 5,-7 15,-7 21,-13 10,9 23,15 37,15 16,0 30,-6 39,-17 8,7 19,8 25,16 3,5 3,17 3,22l-1 48 -80 0 -4 -32c14,-17 14,-12 -1,-28l0 10c0,7 -10,6 -10,1l0 -11zm29 -102c24,0 43,19 43,43 0,24 -19,43 -43,43 -24,0 -43,-19 -43,-43 0,-24 19,-43 43,-43z"/>
 </g>
</svg>
